<?xml version="1.0" encoding="UTF-8"?>
<svg version="1.1" xmlns="http://www.w3.org/2000/svg" width="516" height="483">
<path d="M0 0 C12.21620925 0.58172425 20.73978623 4.95377973 29 14 C36.79327307 23.91719083 39.58594491 36.59716812 40 49 C40.02835938 49.81855469 40.05671875 50.63710937 40.0859375 51.48046875 C40.18992403 58.02122178 39.62602623 64.49379882 39 71 C39.60585938 71.02578125 40.21171875 71.0515625 40.8359375 71.078125 C50.33376275 71.72105471 58.16574154 74.04587998 64.66015625 81.2890625 C68.10005412 85.68170177 68.49252632 89.90979558 68.38671875 95.37109375 C67.72203224 99.8896192 65.55085843 103.28494165 63 107 C62.4225 107.86625 61.845 108.7325 61.25 109.625 C48.22846858 123.36994983 30.48341382 129.59549453 11.94921875 130.37890625 C-2.13286428 130.71071359 -15.36957401 129.91625556 -29.03076172 126.45751953 C-32.00055247 125.76753839 -34.97601724 125.37849587 -38 125 C-37.5758071 126.94045688 -37.13514005 128.87731761 -36.6875 130.8125 C-36.44386719 131.89144531 -36.20023437 132.97039062 -35.94921875 134.08203125 C-34.9683158 137.09739958 -34.3729801 138.0283529 -32 140 C-30.12766771 140.83433519 -30.12766771 140.83433519 -28.05078125 141.3515625 C-27.28443359 141.56296875 -26.51808594 141.774375 -25.72851562 141.9921875 C-24.93123047 142.20101562 -24.13394531 142.40984375 -23.3125 142.625 C-22.53455078 142.8415625 -21.75660156 143.058125 -20.95507812 143.28125 C3.1378044 149.7917537 32.27729583 147.61119959 54.625 136.3125 C65.36598236 130.11936133 72.0789316 122.7632052 76 111 C76.07051114 108.26134713 76.09357765 105.54972412 76.0625 102.8125 C76.05573242 101.68811523 76.05573242 101.68811523 76.04882812 100.54101562 C76.03706354 98.69397617 76.01912865 96.84697787 76 95 C76.99 95 77.98 95 79 95 C82.31572833 98.31572833 82.09435356 102.180828 82.25 106.6875 C82.06800868 117.85514911 77.46916182 125.97727929 70.0703125 134.125 C57.61137645 146.16080238 41.25887698 150.52472981 25 155 C25.16008545 155.58555664 25.3201709 156.17111328 25.48510742 156.77441406 C27.0604715 163.58381137 27.3244571 173.31128777 24.375 179.6875 C21.42891349 184.37022698 17.87990151 187.20465705 12.75 189.375 C2.14655407 191.14224099 -6.04562392 187.47554951 -15 182 C-35.84222893 166.72718211 -44.11307082 141.44673882 -48 117 C-48.88457642 110.6378542 -49.10353718 104.41930485 -49 98 C-49.67546875 98.33773437 -50.3509375 98.67546875 -51.046875 99.0234375 C-55.03125 101.015625 -59.015625 103.0078125 -63 105 C-62.52713098 137.2814638 -55.1056243 167.82372515 -31.1796875 191.14453125 C-23.49008221 197.6903422 -15.79145961 201.35634365 -5.6875 201.1875 C-4.96626953 201.18685547 -4.24503906 201.18621094 -3.50195312 201.18554688 C1.40418848 201.14594573 6.14259441 200.68607424 11 200 C10.9375 201.8125 10.9375 201.8125 10 204 C1.57166905 208.21416548 -6.67611731 209.46580062 -15.94921875 207.31640625 C-36.19594933 200.35569003 -48.90917622 185.08992783 -59 167 C-59.81984375 167.42152344 -60.6396875 167.84304688 -61.484375 168.27734375 C-62.56203125 168.82519531 -63.6396875 169.37304688 -64.75 169.9375 C-65.81734375 170.48277344 -66.8846875 171.02804687 -67.984375 171.58984375 C-74.52049505 174.64624185 -80.86021029 174.99426674 -87.75 172.8125 C-93.41261513 169.6545031 -96.54897019 165.96532327 -99 160 C-99.44181581 157.09333577 -99.47645549 154.24869288 -99.4375 151.3125 C-99.42992676 150.51448975 -99.42235352 149.71647949 -99.41455078 148.89428711 C-99.23152153 142.30055804 -97.96769378 136.92614241 -95 131 C-94.57589844 130.10152344 -94.15179688 129.20304688 -93.71484375 128.27734375 C-81.33005633 103.74925501 -56.75413867 88.50892023 -31.48046875 79.78515625 C-30.66191406 79.52605469 -29.84335938 79.26695312 -29 79 C-29 78.01 -29 77.02 -29 76 C-29.556875 75.7525 -30.11375 75.505 -30.6875 75.25 C-33 74 -33 74 -35.3125 71.875 C-38.84751922 69.40870752 -40.72943975 69.69308089 -45 70 C-47.63271718 70.73548925 -50.03596394 71.50622498 -52.5625 72.5 C-53.25794922 72.77062256 -53.95339844 73.04124512 -54.66992188 73.32006836 C-73.39105903 80.85153585 -91.37853819 94.10845257 -103.125 110.6875 C-103.55167969 111.28836426 -103.97835937 111.88922852 -104.41796875 112.50830078 C-108.19940066 117.99976097 -110.87832486 123.67203441 -113 130 C-113.24363281 130.70511719 -113.48726562 131.41023437 -113.73828125 132.13671875 C-116.64462808 141.88385473 -115.33705887 150.95582604 -111 160 C-108.79352455 163.27628173 -107.28249441 164.8116704 -104 167 C-104.33 168.32 -104.66 169.64 -105 171 C-112.38296939 167.45617469 -117.48992312 161.93028973 -120.46875 154.1640625 C-124.14034907 139.20769571 -120.89686275 125.01694153 -113.2109375 111.9609375 C-108.62792366 104.89469704 -103.45144848 98.4104996 -98 92 C-99.35708963 88.89616135 -100.8314855 87.085303 -103.375 84.875 C-108.37825654 79.997086 -111.07374999 73.87375016 -111.5 66.875 C-110.73981568 60.98357152 -108.44175508 57.04636205 -105.0625 52.25 C-95.29196881 45.07165056 -82.63980045 44.8411932 -71 46 C-54.09817028 48.69351868 -39.86873687 57.1175985 -27 68 C-26.10539062 68.75410156 -25.21078125 69.50820312 -24.2890625 70.28515625 C-16.62607753 76.96963699 -9.29119932 84.25801852 -4 93 C-2.26674351 90.40011526 -0.99322866 88.03729528 0.25 85.1875 C0.62640625 84.35605469 1.0028125 83.52460938 1.390625 82.66796875 C2.21974726 79.0379014 1.57709984 77.36617546 0 74 C-1.67360343 71.57989462 -3.54749151 69.38608721 -5.5 67.1875 C-6.03971436 66.57293945 -6.57942871 65.95837891 -7.13549805 65.32519531 C-23.63260068 46.80878317 -48.13752187 30.33237833 -73.55078125 28.625 C-84.70590734 28.18440672 -95.14581983 29.5544394 -104 37 C-108.46072612 42.18280021 -108.46072612 42.18280021 -112 48 C-112.99 47.67 -113.98 47.34 -115 47 C-113.84494725 39.51840829 -109.54774202 33.97544891 -103.8125 29.1875 C-93.09087393 21.36851381 -80.24391991 19.73493768 -67.375 21.49609375 C-58.50666616 23.1311928 -50.41094574 25.81036726 -42 29 C-40.00323268 29.67628744 -38.00417927 30.34600466 -36 31 C-35.649375 30.030625 -35.29875 29.06125 -34.9375 28.0625 C-31.91374718 21.09656477 -27.00069736 14.56947045 -20.30859375 10.8125 C-14.43940189 8.74686225 -8.318854 8.9499529 -2.6875 11.5 C8.7417392 22.13185042 14.30760409 34.26667028 15.16015625 49.9453125 C15.84333283 76.02483578 5.36429944 101.2019849 -10 122 C-7.60225255 122.13572155 -5.21224755 122.23436868 -2.8125 122.3125 C-2.13896484 122.35439453 -1.46542969 122.39628906 -0.77148438 122.43945312 C3.11045669 122.53413461 4.76481886 122.19075804 7.8125 119.71875 C26.51960022 96.46849687 32.89785083 68.35892718 31 39 C29.6518636 28.70609029 25.69438881 18.60518491 17.94921875 11.46484375 C12.32873596 7.24103403 5.7731526 5.47777875 -1 4 C-1 1 -1 1 0 0 Z M-19 40 C-18.42646054 43.37679927 -17.44729345 44.87625308 -14.90234375 47.13671875 C-14.2688501 47.71019043 -13.63535645 48.28366211 -12.98266602 48.87451172 C-11.97030884 49.77194092 -11.97030884 49.77194092 -10.9375 50.6875 C-5.2386296 55.85723302 0.08606554 61.06559992 5 67 C8.73544252 61.32212736 7.65120872 52.55278774 7 46 C5.85746417 41.42336498 3.78528136 38.73049429 0.3125 35.5 C-7.83735852 31.80949803 -13.08537281 33.60992046 -19 40 Z M-84 59 C-86.45368802 62.45049878 -87.02629818 64.26365109 -86.875 68.5 C-85.99648572 72.0140571 -84.76781515 74.84867735 -83 78 C-79.38553647 77.45876364 -77.19603734 76.65607066 -74.3125 74.4375 C-67.19535986 69.44578567 -58.96354638 66.38472198 -51 63 C-51 62.34 -51 61.68 -51 61 C-52.74802146 60.18325204 -54.49850189 59.37176549 -56.25 58.5625 C-57.22453125 58.11003906 -58.1990625 57.65757812 -59.203125 57.19140625 C-67.53431944 53.64250359 -76.70970232 53.22851433 -84 59 Z M-32.75 88.9375 C-33.77673828 89.35418945 -33.77673828 89.35418945 -34.82421875 89.77929688 C-38.15731278 90.98816075 -38.15731278 90.98816075 -41 93 C-41.12717273 95.94863292 -41.18521566 98.86342268 -41.1875 101.8125 C-41.19974609 102.63298828 -41.21199219 103.45347656 -41.22460938 104.29882812 C-41.22654297 105.09353516 -41.22847656 105.88824219 -41.23046875 106.70703125 C-41.23457764 107.4338208 -41.23868652 108.16061035 -41.24291992 108.90942383 C-40.95555896 111.38246093 -40.37162121 112.92173554 -39 115 C-36.35385545 116.14245308 -33.93355963 117.01778105 -31.1875 117.8125 C-30.47529297 118.04130859 -29.76308594 118.27011719 -29.02929688 118.50585938 C-23.50000641 120.21021908 -23.50000641 120.21021908 -18 119 C-16.17800655 116.94584932 -14.73713809 115.08326473 -13.25 112.8125 C-12.85167969 112.24724609 -12.45335937 111.68199219 -12.04296875 111.09960938 C-9.57895351 107.45370207 -7.95264843 104.43920967 -8 100 C-9.71695332 97.00288987 -9.71695332 97.00288987 -12.25 94.3125 C-13.05953125 93.38050781 -13.8690625 92.44851562 -14.703125 91.48828125 C-15.46109375 90.66714844 -16.2190625 89.84601563 -17 89 C-17.48984375 88.39542969 -17.9796875 87.79085937 -18.484375 87.16796875 C-19.98046606 85.82568154 -19.98046606 85.82568154 -22.203125 85.62890625 C-25.97038729 86.1287525 -29.27431934 87.47423175 -32.75 88.9375 Z M34 90 C31.98691802 94.01717698 29.97880699 98.03613753 28 102.0703125 C27.33333333 103.421875 26.66666667 104.7734375 26 106.125 C25.67 106.80175781 25.34 107.47851562 25 108.17578125 C23.41278579 111.38120994 21.78099768 114.41902273 19.75 117.3671875 C17.8154803 119.75070984 17.8154803 119.75070984 18 122 C27.93485731 120.97833028 37.65261083 118.65069539 44.6875 111.125 C46.36528073 107.13028398 46.93080857 104.35906006 47 100 C45.30190298 95.84909617 42.70498526 93.46999018 39 91 C36.31492671 90.21053391 36.31492671 90.21053391 34 90 Z M-73 114 C-79.51463469 119.93268221 -85.33738911 126.11940354 -87 135.0625 C-87 139.66483645 -86.32916378 143.02672061 -84 147 C-80.83565407 150.06845666 -78.05111706 150.17670979 -73.8125 150.25 C-70.26580411 150.20699173 -70.26580411 150.20699173 -67 149 C-67.42716839 143.81777294 -68.0040311 138.73119875 -69 133.625 C-69.98093824 128.5688404 -70.38889614 123.57347162 -70.65625 118.43359375 C-70.77628354 115.82287781 -70.77628354 115.82287781 -73 114 Z M-30 150 C-26.87444453 158.41381757 -21.69755397 165.107741 -14.8125 170.8125 C-10.55598584 172.60969487 -6.54882029 172.68082672 -2 172 C1.64788595 169.87206653 3.4193288 167.86075443 5 164 C5.23979762 161.63777768 5.23979762 161.63777768 5.125 159.25 C5.10695313 158.45078125 5.08890625 157.6515625 5.0703125 156.828125 C5.04710937 156.22484375 5.02390625 155.6215625 5 155 C3.8140625 154.89042969 2.628125 154.78085937 1.40625 154.66796875 C-9.1974742 153.64446449 -19.56843768 152.15825427 -30 150 Z " fill="#0E0E0E" transform="translate(280,137)"/>
<path d="M0 0 C12.53191617 0.59675791 20.18808326 5.22558078 29 14 C28.67 14.66 28.34 15.32 28 16 C27.37351562 15.43410156 26.74703125 14.86820313 26.1015625 14.28515625 C25.28429687 13.55167969 24.46703125 12.81820312 23.625 12.0625 C22.40683594 10.96615234 22.40683594 10.96615234 21.1640625 9.84765625 C19.14075833 7.97010529 19.14075833 7.97010529 17 7 C17.44730469 7.49628906 17.89460938 7.99257812 18.35546875 8.50390625 C20.2633675 10.64774984 22.13808264 12.8161261 24 15 C24.474375 15.55042969 24.94875 16.10085937 25.4375 16.66796875 C35.49235903 29.39364971 35.34280016 48.18929301 33.73339844 63.54345703 C33.04432002 68.41220792 32.05356916 73.19865996 31 78 C30.83371094 78.91265625 30.66742188 79.8253125 30.49609375 80.765625 C29.65656358 85.2128659 28.27695621 88.91242796 26.09765625 92.8828125 C25.18160202 94.64972137 24.37847941 96.47458807 23.60546875 98.30859375 C20.97404195 104.52157005 17.50449272 110.25157597 14 116 C13.26716797 117.32837891 13.26716797 117.32837891 12.51953125 118.68359375 C10.81528348 121.24681895 9.72584082 122.53053207 7 124 C1.34850125 124.97523336 -6.81943785 125.59028108 -12 123 C-11.38232264 118.87877564 -9.08459552 115.81774358 -6.8125 112.4375 C-2.87168238 106.45729547 0.6917122 100.35710205 4 94 C4.495 94.99 4.495 94.99 5 96 C3.72529946 98.76235105 2.39255615 101.3969278 0.9375 104.0625 C0.5257251 104.82876709 0.1139502 105.59503418 -0.31030273 106.38452148 C-3.25100635 111.79291633 -6.37821791 117.01472348 -10 122 C-7.60225255 122.13572155 -5.21224755 122.23436868 -2.8125 122.3125 C-2.13896484 122.35439453 -1.46542969 122.39628906 -0.77148438 122.43945312 C3.11045669 122.53413461 4.76481886 122.19075804 7.8125 119.71875 C26.51960022 96.46849687 32.89785083 68.35892718 31 39 C29.6518636 28.70609029 25.69438881 18.60518491 17.94921875 11.46484375 C12.32873596 7.24103403 5.7731526 5.47777875 -1 4 C-1 1 -1 1 0 0 Z " fill="#444445" transform="translate(280,137)"/>
<path d="M0 0 C2.38958004 1.46458132 3.7766284 2.38572809 4.75 5.0625 C5.34988714 12.1111739 5.33854745 18.27667608 3 25 C1.85017398 20.90996141 1.88905744 16.96822949 1.9375 12.75 C1.94201172 12.00492188 1.94652344 11.25984375 1.95117188 10.4921875 C1.96290754 8.6614236 1.9808415 6.83070127 2 5 C1.96662196 17.36656494 -0.00959764 25.91143429 -8.6875 35.25 C-26.19399682 51.43275415 -51.45654243 56.0250348 -74.59765625 55.3203125 C-87.04281137 54.70084014 -102.08319785 53.45964624 -113 47 C-115.15516238 44.12645016 -115.57574987 41.51751692 -116 38 C-116.39381344 35.97877207 -116.78965316 33.95793789 -117.1875 31.9375 C-117.46500448 30.29277835 -117.73827835 28.64730684 -118 27 C-115.0625 27.375 -115.0625 27.375 -112 28 C-111.67 28.66 -111.34 29.32 -111 30 C-112.32 30.33 -113.64 30.66 -115 31 C-114.5758071 32.94045688 -114.13514005 34.87731761 -113.6875 36.8125 C-113.44386719 37.89144531 -113.20023438 38.97039062 -112.94921875 40.08203125 C-111.9683158 43.09739958 -111.3729801 44.0283529 -109 46 C-107.12766771 46.83433519 -107.12766771 46.83433519 -105.05078125 47.3515625 C-104.28443359 47.56296875 -103.51808594 47.774375 -102.72851562 47.9921875 C-101.93123047 48.20101562 -101.13394531 48.40984375 -100.3125 48.625 C-99.53455078 48.8415625 -98.75660156 49.058125 -97.95507812 49.28125 C-73.8621956 55.7917537 -44.72270417 53.61119959 -22.375 42.3125 C-11.63401764 36.11936133 -4.9210684 28.7632052 -1 17 C-0.95481832 14.2834512 -0.95228954 11.5897254 -1 8.875 C-1.04576155 6.24371069 -1.04711723 3.63267512 -1 1 C-0.67 0.67 -0.34 0.34 0 0 Z " fill="#474748" transform="translate(357,231)"/>
<path d="M0 0 C1.80233837 1.38623827 3.49170611 2.8457414 5.17749023 4.37133789 C5.77045898 4.87922852 6.36342773 5.38711914 6.97436523 5.91040039 C8.46707748 7.21738346 9.89121517 8.60181386 11.30249023 9.99633789 C11.30249023 10.65633789 11.30249023 11.31633789 11.30249023 11.99633789 C10.33311523 12.33665039 9.36374023 12.67696289 8.36499023 13.02758789 C-7.38010184 18.66868664 -21.52484489 25.61586308 -34.69750977 35.99633789 C-35.6140332 36.71563477 -36.53055664 37.43493164 -37.47485352 38.17602539 C-43.42426621 43.18123237 -47.57849512 48.71378546 -51.78735352 55.17602539 C-53.30896444 57.42265747 -54.69229531 59.19855941 -56.69750977 60.99633789 C-55.37131638 56.20770447 -53.30509312 52.61208617 -50.26000977 48.74633789 C-49.81536377 48.18060059 -49.37071777 47.61486328 -48.91259766 47.03198242 C-34.68220267 29.37164626 -14.12110419 17.77766463 7.30249023 10.99633789 C7.30249023 10.00633789 7.30249023 9.01633789 7.30249023 7.99633789 C6.74561523 7.74883789 6.18874023 7.50133789 5.61499023 7.24633789 C3.30249023 5.99633789 3.30249023 5.99633789 0.98999023 3.87133789 C-2.54502899 1.40504541 -4.42694952 1.68941878 -8.69750977 1.99633789 C-11.33008313 2.73178696 -13.73338333 3.50316417 -16.26000977 4.49633789 C-16.9518335 4.76406006 -17.64365723 5.03178223 -18.35644531 5.30761719 C-30.13345488 10.02675919 -40.18603234 16.61070881 -49.69750977 24.99633789 C-50.35750977 24.66633789 -51.01750977 24.33633789 -51.69750977 23.99633789 C-42.72927477 15.07671122 -13.31333945 -7.87158615 0 0 Z " fill="#464647" transform="translate(243.697509765625,205.003662109375)"/>
<path d="M0 0 C1.4540625 1.2375 1.4540625 1.2375 2.9375 2.5 C3.58074219 3.04527344 4.22398437 3.59054687 4.88671875 4.15234375 C6.31589848 5.40188537 7.71424556 6.6874446 9.08203125 8.00390625 C17.94386019 16.41865193 25.73270755 19.52152868 37.81054688 19.34375 C42.58542993 19.18204182 47.26808458 18.64791659 52 18 C51.9375 19.8125 51.9375 19.8125 51 22 C42.49799014 26.25100493 34.00125245 27.62637492 24.69921875 25.10546875 C22.0897467 24.14764697 19.53549389 23.13817762 17 22 C19.49064888 21.31292445 21.37886292 21 24 21 C23.27296875 20.63390625 22.5459375 20.2678125 21.796875 19.890625 C15.42423367 16.45920275 10.33544376 12.80986169 5.25 7.6875 C4.46254395 6.89617676 4.46254395 6.89617676 3.65917969 6.08886719 C0 2.28243681 0 2.28243681 0 0 Z " fill="#383838" transform="translate(239,319)"/>
<path d="M0 0 C23.56797814 3.36685402 43.2262666 21.42940715 58 39 C59.40116095 40.96586619 60.70473201 42.9610958 62 45 C63.73325649 42.40011526 65.00677134 40.03729528 66.25 37.1875 C66.81460938 35.94033203 66.81460938 35.94033203 67.390625 34.66796875 C68.21974726 31.0379014 67.57709984 29.36617546 66 26 C64.32638291 23.57987486 62.45145348 21.38699895 60.5 19.1875 C59.97116211 18.58019043 59.44232422 17.97288086 58.89746094 17.34716797 C54.28626822 12.13853466 49.33928644 7.46515547 44 3 C49.52623207 3 53.21953323 8.30147976 57 12 C60.11908937 15.24017203 63.09965677 18.56321117 66 22 C66.48984375 22.55558594 66.9796875 23.11117187 67.484375 23.68359375 C69.71821488 26.50649414 70 28.12125405 70 31.75 C68.94629141 37.43563596 66.57610964 42.84778073 64 48 C60.61675414 46.58665271 59.00394583 45.0205579 56.875 42.0625 C44.12377717 25.16034718 27.87637818 11.6566593 8 4 C7.23429688 3.70351562 6.46859375 3.40703125 5.6796875 3.1015625 C3.79253289 2.38483828 1.89713687 1.68986795 0 1 C0 0.67 0 0.34 0 0 Z " fill="#454545" transform="translate(214,185)"/>
<path d="M0 0 C12.53191617 0.59675791 20.18808326 5.22558078 29 14 C28.67 14.66 28.34 15.32 28 16 C27.37351562 15.43410156 26.74703125 14.86820313 26.1015625 14.28515625 C25.28429687 13.55167969 24.46703125 12.81820312 23.625 12.0625 C22.81289063 11.33160156 22.00078125 10.60070312 21.1640625 9.84765625 C19.14075833 7.97010529 19.14075833 7.97010529 17 7 C17.44730469 7.49628906 17.89460938 7.99257812 18.35546875 8.50390625 C20.2634111 10.64779883 22.13895103 12.81529034 24 15 C24.50917969 15.59683594 25.01835937 16.19367188 25.54296875 16.80859375 C28.96289162 21.15119376 29.7099409 24.48887714 30 30 C28.28024315 27.42036472 27.08825997 25.05405945 25.8125 22.25 C21.55376565 13.7325313 15.98653002 9.05173972 7 6 C4.34065745 5.2269353 1.70861285 4.59097008 -1 4 C-1 1 -1 1 0 0 Z " fill="#444445" transform="translate(280,137)"/>
<path d="M0 0 C1.11117187 0.26554687 2.22234375 0.53109375 3.3671875 0.8046875 C7.90780171 1.88566443 12.45286832 2.94681189 17 4 C17.95648438 4.22300781 18.91296875 4.44601562 19.8984375 4.67578125 C26.54537795 6.12220849 33.21783584 6.59604665 40 7 C40.63369157 12.72669418 40.67030501 16.8210848 37.125 21.5625 C34.59913442 24.59475892 33.23653997 25.87894014 29.20703125 26.2734375 C17.90040408 26.61172554 17.90040408 26.61172554 13.6875 22.95703125 C9.6693483 18.29709143 6.30571188 13.17638604 3 8 C2.41734375 7.1028125 1.8346875 6.205625 1.234375 5.28125 C0 3 0 3 0 0 Z M3 3 C6.12555547 11.41381757 11.30244603 18.107741 18.1875 23.8125 C22.44401416 25.60969487 26.45117971 25.68082672 31 25 C34.64788595 22.87206653 36.4193288 20.86075443 38 17 C38.23979762 14.63777768 38.23979762 14.63777768 38.125 12.25 C38.10695313 11.45078125 38.08890625 10.6515625 38.0703125 9.828125 C38.04710937 9.22484375 38.02390625 8.6215625 38 8 C36.8140625 7.89042969 35.628125 7.78085937 34.40625 7.66796875 C23.8025258 6.64446449 13.43156232 5.15825427 3 3 Z " fill="#424243" transform="translate(247,284)"/>
<path d="M0 0 C3.70092309 2.73128124 5.60848411 6.02897367 6.75 10.4375 C7.11348275 14.17745245 7.07960342 17.87120107 7 21.625 C6.99484375 22.60919922 6.9896875 23.59339844 6.984375 24.60742188 C6.93964554 28.71973649 6.89525564 32.46525311 5.75 36.4375 C5.09 36.4375 4.43 36.4375 3.75 36.4375 C2.775231 35.01640049 1.8073843 33.58982191 0.88330078 32.13525391 C-5.10359405 23.16651916 -13.77369666 15.92998766 -22.25 9.4375 C-21.73529267 5.79113961 -21.10309716 3.75187195 -18.4375 1.1875 C-17.93605469 0.68734375 -17.43460937 0.1871875 -16.91796875 -0.328125 C-11.74580655 -4.15576728 -5.08835405 -3.51695059 0 0 Z M-20.25 5.4375 C-19.67646054 8.81429927 -18.69729345 10.31375308 -16.15234375 12.57421875 C-15.5188501 13.14769043 -14.88535645 13.72116211 -14.23266602 14.31201172 C-13.22030884 15.20944092 -13.22030884 15.20944092 -12.1875 16.125 C-6.4886296 21.29473302 -1.16393446 26.50309992 3.75 32.4375 C7.48544252 26.75962736 6.40120872 17.99028774 5.75 11.4375 C4.60746417 6.86086498 2.53528136 4.16799429 -0.9375 0.9375 C-9.08735852 -2.75300197 -14.33537281 -0.95257954 -20.25 5.4375 Z " fill="#464647" transform="translate(281.25,171.5625)"/>
<path d="M0 0 C2.9375 0.375 2.9375 0.375 6 1 C6.33 1.66 6.66 2.32 7 3 C5.68 3.33 4.36 3.66 3 4 C3.4241929 5.94045688 3.86485995 7.87731761 4.3125 9.8125 C4.55613281 10.89144531 4.79976562 11.97039062 5.05078125 13.08203125 C6.0316842 16.09739958 6.6270199 17.0283529 9 19 C10.87233229 19.83433519 10.87233229 19.83433519 12.94921875 20.3515625 C13.71556641 20.56296875 14.48191406 20.774375 15.27148438 20.9921875 C16.06876953 21.20101563 16.86605469 21.40984375 17.6875 21.625 C18.46544922 21.8415625 19.24339844 22.058125 20.04492188 22.28125 C30.22200372 25.03135385 40.02719468 25.12767833 50.5 25.0625 C51.90885258 25.05747533 53.31770689 25.05291413 54.7265625 25.04882812 C58.15108638 25.0371003 61.57552047 25.02068691 65 25 C54.34135573 32.10576285 35.45233379 28.29490088 23.375 25.96484375 C6.8214523 22.42860307 6.8214523 22.42860307 3.546875 18.0625 C2.67742544 15.67577571 2.30408887 13.52124315 2 11 C1.60618656 8.97877207 1.21034684 6.95793789 0.8125 4.9375 C0.53499552 3.29277835 0.26172165 1.64730684 0 0 Z " fill="#414142" transform="translate(239,258)"/>
<path d="M0 0 C0.33 0.66 0.66 1.32 1 2 C0.29296875 4.1015625 0.29296875 4.1015625 -0.8125 6.625 C-5.06491207 16.98381695 -7.40606816 28.53029013 -3.87890625 39.48046875 C-2.6949938 42.07300225 -1.45346733 44.54986937 0 47 C0 45.35 0 43.7 0 42 C0.556875 42.721875 1.11375 43.44375 1.6875 44.1875 C3.95385929 47.0592739 3.95385929 47.0592739 6.6875 49.5625 C8.88449912 51.87825583 9.65571773 52.90145954 10 56 C9.01 56.495 9.01 56.495 8 57 C0.45823477 52.05948878 -4.0636581 46.57060476 -7 38 C-9.09129848 24.33909867 -6.93556591 13.36748577 -1 1 C-0.67 0.67 -0.34 0.34 0 0 Z " fill="#434344" transform="translate(166,251)"/>
<path d="M0 0 C5.3793742 10.7587484 3.11808419 25.37991072 2 37 C2.90878906 37.03867188 2.90878906 37.03867188 3.8359375 37.078125 C13.33376275 37.72105471 21.16574154 40.04587998 27.66015625 47.2890625 C31.54764881 52.25326582 31.7382848 57.86572189 31 64 C30.01 64.99 30.01 64.99 29 66 C29.03480469 65.27554688 29.06960938 64.55109375 29.10546875 63.8046875 C29.29096993 57.17964535 29.21419485 52.53648539 24.55859375 47.4140625 C17.37088504 40.57656698 9.83621377 39.98362138 0 39 C0 26.13 0 13.26 0 0 Z " fill="#454546" transform="translate(317,171)"/>
<path d="M0 0 C-2.97 1.32 -5.94 2.64 -9 4 C-9.0269501 6.93756119 -9.04681474 9.87487555 -9.0625 12.8125 C-9.07087891 13.64587891 -9.07925781 14.47925781 -9.08789062 15.33789062 C-9.09111328 16.14033203 -9.09433594 16.94277344 -9.09765625 17.76953125 C-9.10289307 18.50792236 -9.10812988 19.24631348 -9.11352539 20.00708008 C-9.07523213 22.21057409 -9.07523213 22.21057409 -8 25 C-5.3987831 26.08087095 -2.9363273 26.95072304 -0.25 27.75 C0.46671875 27.98332031 1.1834375 28.21664062 1.921875 28.45703125 C7.47932968 30.22162032 7.47932968 30.22162032 13 29 C14.88625593 26.79444055 16.35628413 24.80794286 17.875 22.375 C18.29007812 21.77042969 18.70515625 21.16585937 19.1328125 20.54296875 C21.42292117 16.96276553 22.02711983 15.44354048 21.7578125 11.0390625 C21.50773437 10.03617188 21.25765625 9.03328125 21 8 C23.0625 9.75 23.0625 9.75 25 12 C24.64945553 15.67275004 22.65682792 18.39706011 20.6875 21.4375 C20.09324219 22.36433594 19.49898438 23.29117188 18.88671875 24.24609375 C17.02002414 26.97077221 15.2394655 29.56882928 13 32 C3.96049674 33.03732005 -2.70917105 29.68481287 -11 26 C-11 18.08 -11 10.16 -11 2 C-4 -1 -4 -1 0 0 Z " fill="#454545" transform="translate(249,226)"/>
<path d="M0 0 C3.43727761 1.85047959 6.73874058 3.8558954 10 6 C7.76504572 8.23495428 5.97585464 9.0024791 3.0625 10.1875 C1.74958984 10.73470703 1.74958984 10.73470703 0.41015625 11.29296875 C-2 12 -2 12 -5 11 C-3.5437455 10.32880451 -2.08492133 9.66318193 -0.625 9 C0.18710938 8.62875 0.99921875 8.2575 1.8359375 7.875 C4 7 4 7 6 7 C6 6.34 6 5.68 6 5 C5.195625 4.731875 4.39125 4.46375 3.5625 4.1875 C1.68983503 3.56327834 -0.18113582 2.92803712 -2.015625 2.19921875 C-8.00512109 -0.07377347 -13.61299774 -0.7920289 -20 0 C-22.97984167 1.33170309 -22.97984167 1.33170309 -25 3 C-25.66 3 -26.32 3 -27 3 C-28.9884529 7.79568052 -29.01285921 10.93570397 -28 16 C-27.814375 16.969375 -27.62875 17.93875 -27.4375 18.9375 C-27.293125 19.618125 -27.14875 20.29875 -27 21 C-29 19.6875 -29 19.6875 -31 17 C-31.80068341 11.99572869 -31.8393808 7.57803591 -29.4375 3.0625 C-20.15037629 -4.79583544 -11.04215983 -4.63770713 0 0 Z " fill="#3E3E3E" transform="translate(223,193)"/>
<path d="M0 0 C4.02551933 1.34183978 4.77117044 3.82027717 6.625 7.375 C10.36852525 14.25430099 14.87400157 20.07426873 20 26 C21.34008477 27.66124302 22.67541656 29.32637093 24 31 C13.11624399 26.36342233 6.74880445 12.67335363 1 3 C-0.22976562 3.63228516 -0.22976562 3.63228516 -1.484375 4.27734375 C-2.56203125 4.82519531 -3.6396875 5.37304688 -4.75 5.9375 C-6.35101563 6.75541016 -6.35101563 6.75541016 -7.984375 7.58984375 C-14.11474343 10.45650567 -20.56730993 11.12087839 -27.0625 9 C-27.701875 8.67 -28.34125 8.34 -29 8 C-26.22709341 6.6135467 -24.02905807 7.01652428 -20.9375 7.125 C-12.19087064 7.1829887 -6.73758436 5.54859889 0 0 Z " fill="#444445" transform="translate(220,301)"/>
<path d="M0 0 C0 7.26 0 14.52 0 22 C-0.33 22 -0.66 22 -1 22 C-1.74507544 15.62694402 -2.10349817 9.41688675 -2 3 C-2.67546875 3.33773437 -3.3509375 3.67546875 -4.046875 4.0234375 C-8.03125 6.015625 -12.015625 8.0078125 -16 10 C-16 17.92 -16 25.84 -16 34 C-19.99319974 28.01020039 -19.08371547 19.32356156 -18.48388672 12.33105469 C-17.75234837 8.80697388 -16.24144359 7.36824838 -13.3125 5.375 C-11.56986895 4.52304704 -9.79736043 3.72943971 -8 3 C-7.12730469 2.45601562 -6.25460938 1.91203125 -5.35546875 1.3515625 C-3 0 -3 0 0 0 Z " fill="#444445" transform="translate(233,232)"/>
<path d="M0 0 C0.99317325 3.21101127 0.93532031 5.79157388 0.6875 9.125 C0.64363346 15.70498076 2.90916789 19.95064656 7 25 C9.53014253 27.53014253 12.16105656 29.82395706 15 32 C13.97098595 35.08704216 12.87502868 36.16312656 10.59375 38.3515625 C5.44382702 43.67819852 0.95237401 49.74207448 -3 56 C-3.33 55.34 -3.66 54.68 -4 54 C0.70579653 47.04587847 5.34692541 40.23287711 11 34 C9.64291037 30.89616135 8.1685145 29.085303 5.625 26.875 C0.5580182 21.9349572 -2.14718115 15.79008768 -2.375 8.6875 C-2.03610831 5.35506509 -1.48833297 2.97666594 0 0 Z " fill="#424242" transform="translate(171,195)"/>
<path d="M0 0 C0.92490234 -0.00322266 1.84980469 -0.00644531 2.80273438 -0.00976562 C11.11376138 0.05429975 19.08961236 0.98466476 26.625 4.6875 C27.98238281 5.33912109 27.98238281 5.33912109 29.3671875 6.00390625 C30.25664062 6.43574219 31.14609375 6.86757812 32.0625 7.3125 C33.78848027 8.09044183 35.51740717 8.86189877 37.25 9.625 C37.98605469 9.95113281 38.72210938 10.27726563 39.48046875 10.61328125 C40.00253906 10.84402344 40.52460938 11.07476562 41.0625 11.3125 C41.0625 11.9725 41.0625 12.6325 41.0625 13.3125 C37.22144438 12.17056455 33.71886795 10.68079416 30.125 8.9375 C16.16822127 2.59863958 -0.42521262 -1.16897261 -15.3125 4.25 C-16.85593487 4.93352116 -18.39785159 5.62049196 -19.9375 6.3125 C-21.26276025 6.67660734 -22.59436132 7.02117997 -23.9375 7.3125 C-18.08391849 -0.06810277 -8.70075016 -0.15094986 0 0 Z " fill="#464647" transform="translate(201.9375,163.6875)"/>
<path d="M0 0 C0.33 7.59 0.66 15.18 1 23 C0.67 23 0.34 23 0 23 C-0.66 17.06 -1.32 11.12 -2 5 C-4.18308412 4.76973191 -4.18308412 4.76973191 -5.83984375 6.7578125 C-11.62161085 13.28248822 -16.06784678 18.87460799 -16 28 C-15.52716901 30.77078958 -14.81948516 33.30051947 -14 36 C-17 34 -17 34 -17.6875 32.375 C-18.8194911 23.77186765 -17.35406174 18.09655643 -12.25 11 C-3.65625 0 -3.65625 0 0 0 Z " fill="#454546" transform="translate(210,248)"/>
<path d="M0 0 C0.66 0.33 1.32 0.66 2 1 C0.35 2.32 -1.3 3.64 -3 5 C-1.94729537 6.15811388 -1.94729537 6.15811388 0 7 C-0.47050781 7.51949219 -0.94101563 8.03898438 -1.42578125 8.57421875 C-4.67440177 12.21294277 -7.69660472 15.66419713 -10 20 C-10.99 19.67 -11.98 19.34 -13 19 C-11.96211667 12.06449728 -7.97271776 6.39604853 -2.625 1.9375 C-1.75875 1.298125 -0.8925 0.65875 0 0 Z " fill="#474748" transform="translate(178,165)"/>
<path d="M0 0 C-0.99 0.33 -1.98 0.66 -3 1 C3.93 1.495 3.93 1.495 11 2 C11 2.33 11 2.66 11 3 C9.87722656 3.03738281 8.75445312 3.07476562 7.59765625 3.11328125 C-4.33774478 3.59853602 -12.99982384 5.10614559 -23 12 C-22.63442316 9.35528007 -22.25109337 8.2292348 -20.25 6.40234375 C-6.94171209 -2.26190619 -6.94171209 -2.26190619 0 0 Z " fill="#131314" transform="translate(197,161)"/>
<path d="M0 0 C11.68563577 1.29376682 18.90684631 5.87177064 27.1875 14.1171875 C26.8575 14.7771875 26.5275 15.4371875 26.1875 16.1171875 C25.53523438 15.50230469 24.88296875 14.88742188 24.2109375 14.25390625 C23.33695312 13.44566406 22.46296875 12.63742188 21.5625 11.8046875 C20.70398438 11.00417969 19.84546875 10.20367187 18.9609375 9.37890625 C14.62324113 5.84154541 10.87148889 3.61565907 5.1875 4.1171875 C5.1875 4.4471875 5.1875 4.7771875 5.1875 5.1171875 C-0.35096154 5.48641827 -0.35096154 5.48641827 -2.6875 3.6171875 C-3.05875 3.1221875 -3.43 2.6271875 -3.8125 2.1171875 C-1.8125 0.1171875 -1.8125 0.1171875 0 0 Z " fill="#474748" transform="translate(281.8125,136.8828125)"/>
<path d="M0 0 C1.22787164 3.68361492 0.62220272 4.25825464 -0.9375 7.6875 C-3.73858655 14.98199623 -3.90566702 22.27327326 -3 30 C-1.56260025 33.27779679 -1.56260025 33.27779679 0 36 C0 36.66 0 37.32 0 38 C0.639375 38.28875 1.27875 38.5775 1.9375 38.875 C4 40 4 40 5 42 C0.11234467 40.64231796 -1.52591098 38.32965579 -4 34 C-7.35008593 23.94974222 -5.59967782 11.31019125 -1 2 C-0.67 1.34 -0.34 0.68 0 0 Z " fill="#434344" transform="translate(186,266)"/>
<path d="M0 0 C0.66 0.33 1.32 0.66 2 1 C2.3853211 18.44648318 2.3853211 18.44648318 0 26 C-0.66 26.33 -1.32 26.66 -2 27 C-1.73958333 25.01432292 -1.47916667 23.02864583 -1.21875 21.04296875 C-0.946767 18.84528294 -0.946767 18.84528294 -1 16 C-0.84254966 13.2699236 -0.67636198 10.54134412 -0.5 7.8125 C-0.45230469 7.06291016 -0.40460938 6.31332031 -0.35546875 5.54101562 C-0.23782168 3.69395656 -0.11902229 1.84697096 0 0 Z " fill="#212122" transform="translate(358,235)"/>
<path d="M0 0 C6.72131927 0.44808795 11.98496573 3.11412582 18 6 C19.72630877 6.7772126 21.45523067 7.5486647 23.1875 8.3125 C23.92355469 8.63863281 24.65960938 8.96476563 25.41796875 9.30078125 C25.94003906 9.53152344 26.46210938 9.76226562 27 10 C27 10.66 27 11.32 27 12 C23.07274309 10.83243713 19.44743867 9.30370516 15.75 7.5625 C10.61628363 5.18225839 5.46110438 3.45708425 0 2 C0 1.34 0 0.68 0 0 Z " fill="#404040" transform="translate(216,165)"/>
<path d="M0 0 C0.556875 0.721875 1.11375 1.44375 1.6875 2.1875 C3.95385929 5.0592739 3.95385929 5.0592739 6.6875 7.5625 C8.88449912 9.87825583 9.65571773 10.90145954 10 14 C9.01 14.495 9.01 14.495 8 15 C2.4601682 9.4601682 0.74647152 7.71353904 0 0 Z " fill="#373738" transform="translate(166,293)"/>
<path d="M0 0 C2.23828125 2.28515625 2.23828125 2.28515625 4.3125 5.0625 C5.00988281 5.98160156 5.70726562 6.90070313 6.42578125 7.84765625 C7.20501953 8.91306641 7.20501953 8.91306641 8 10 C7.67 10.66 7.34 11.32 7 12 C6.47792969 11.26652344 5.95585937 10.53304687 5.41796875 9.77734375 C1.2186027 4.0776739 1.2186027 4.0776739 -5.046875 1.55859375 C-7.78695458 1.84608915 -10.34377656 2.27512407 -13 3 C-12 1 -12 1 -8.75 -0.1875 C-5.03689658 -0.99200574 -3.51286873 -1.20162844 0 0 Z " fill="#444445" transform="translate(262,222)"/>
<path d="M0 0 C6.27 0.33 12.54 0.66 19 1 C19 1.33 19 1.66 19 2 C14.05 2.33 9.1 2.66 4 3 C4 3.33 4 3.66 4 4 C-2.4 4.36923077 -2.4 4.36923077 -5.4375 2.5 C-5.953125 2.005 -6.46875 1.51 -7 1 C-4.69 1 -2.38 1 0 1 C0 0.67 0 0.34 0 0 Z " fill="#2C2C2D" transform="translate(263,339)"/>
<path d="M0 0 C4.75481646 0.57634139 7.97048212 2.55068521 12 5 C9.76504572 7.23495428 7.97585464 8.0024791 5.0625 9.1875 C3.74958984 9.73470703 3.74958984 9.73470703 2.41015625 10.29296875 C0 11 0 11 -3 10 C-1.5437455 9.32880451 -0.08492133 8.66318193 1.375 8 C2.18710938 7.62875 2.99921875 7.2575 3.8359375 6.875 C6 6 6 6 8 6 C8 5.34 8 4.68 8 4 C7.05125 3.71125 6.1025 3.4225 5.125 3.125 C2 2 2 2 0 0 Z " fill="#4A4A4B" transform="translate(221,194)"/>
<path d="M0 0 C4.87664009 -0.34833144 7.77050005 0.58314288 12 3 C11.67 3.99 11.34 4.98 11 6 C7.45028204 5.39147692 4.23306391 4.61653196 1 3 C0.67 2.01 0.34 1.02 0 0 Z " fill="#282828" transform="translate(286,140)"/>
<path d="M0 0 C3 0 3 0 5 1 C3.90344712 2.31886772 2.79746577 3.62990057 1.6875 4.9375 C1.07261719 5.66839844 0.45773438 6.39929688 -0.17578125 7.15234375 C-2 9 -2 9 -5 10 C-4.49942848 5.61999924 -3.06806466 3.15830185 0 0 Z " fill="#2F2F30" transform="translate(173,171)"/>
<path d="M0 0 C0.33 0.99 0.66 1.98 1 3 C1.66 3 2.32 3 3 3 C3.33 5.97 3.66 8.94 4 12 C0.87099787 8.87099787 0.05032455 7.20129821 -1 3 C-0.67 2.01 -0.34 1.02 0 0 Z " fill="#171717" transform="translate(163,287)"/>
<path d="M0 0 C0.33 0 0.66 0 1 0 C1 4.29 1 8.58 1 13 C0.34 13 -0.32 13 -1 13 C-1.33 10.36 -1.66 7.72 -2 5 C-1.67 5 -1.34 5 -1 5 C-0.67 3.35 -0.34 1.7 0 0 Z " fill="#0F0F0F" transform="translate(162,277)"/>
<path d="M0 0 C3.95820859 0.56545837 6.6659053 1.80902348 10 4 C7 5 7 5 5.17578125 4.22265625 C3.45052083 3.1484375 1.72526042 2.07421875 0 1 C0 0.67 0 0.34 0 0 Z " fill="#3A3A3A" transform="translate(267,319)"/>
<path d="M0 0 C2.64 0 5.28 0 8 0 C7.67 0.99 7.34 1.98 7 3 C5.02 3 3.04 3 1 3 C0.67 2.01 0.34 1.02 0 0 Z " fill="#3C3C3D" transform="translate(280,139)"/>
</svg>
